<svg xmlns="http://www.w3.org/2000/svg" id="Layer_1" data-name="Layer 1" viewBox="0 0 670.7 100">
    <defs>
        <style>
            .deb-green {
                fill: #29cc96;
            }
        </style>
    </defs>
    <title>
        De Energiebespaarders
    </title>
    <path
        d="M126,46a.68.68,0,0,1,.7-.7h9.1a13.75,13.75,0,1,1,0,27.5h-9.1a.75.75,0,0,1-.7-.7V46m9.2,23a9.75,9.75,0,0,0,10-10.1,9.67,9.67,0,0,0-10-10H130V69Z" />
    <path
        d="M157.6,46a.68.68,0,0,1,.7-.7h15.8a.75.75,0,0,1,.7.7v2.2a.68.68,0,0,1-.7.7H161.7v8h10.5a.75.75,0,0,1,.7.7v2.2a.86.86,0,0,1-.7.8H161.7v8.5h12.4a.75.75,0,0,1,.7.7V72a.68.68,0,0,1-.7.7H158.3a.75.75,0,0,1-.7-.7V46" />
    <path
        d="M200.9,46a.68.68,0,0,1,.7-.7h15.8a.75.75,0,0,1,.7.7v2.2a.68.68,0,0,1-.7.7H205v8h10.5a.75.75,0,0,1,.7.7v2.2a.86.86,0,0,1-.7.8H205v8.5h12.4a.75.75,0,0,1,.7.7V72a.68.68,0,0,1-.7.7H201.6a.75.75,0,0,1-.7-.7V46"
        class="deb-green" />
    <path
        d="M226.4,45.5a.75.75,0,0,1,.7-.7h1l17.1,19.8h0V46a.68.68,0,0,1,.7-.7h2.5a.86.86,0,0,1,.8.7V72.5a.77.77,0,0,1-.8.7h-1L230.3,52.9h0V72a.68.68,0,0,1-.7.7h-2.5a.75.75,0,0,1-.7-.7V45.5"
        class="deb-green" />
    <path
        d="M259.3,46a.68.68,0,0,1,.7-.7h15.8a.75.75,0,0,1,.7.7v2.2a.68.68,0,0,1-.7.7H263.4v8h10.5a.75.75,0,0,1,.7.7v2.2a.86.86,0,0,1-.7.8H263.4v8.5h12.4a.75.75,0,0,1,.7.7V72a.68.68,0,0,1-.7.7H260a.75.75,0,0,1-.7-.7V46"
        class="deb-green" />
    <path
        d="M284.8,46a.68.68,0,0,1,.7-.7h10.7a8.49,8.49,0,0,1,8.6,8.4,8.8,8.8,0,0,1-5.8,8l5.4,10a.72.72,0,0,1-.7,1.1h-3.1c-.3,0-.6-.2-.6-.4L294.8,62h-5.9V72a.75.75,0,0,1-.7.7h-2.6a.75.75,0,0,1-.7-.7V46m11,12.6a4.89,4.89,0,0,0,4.8-4.9,4.78,4.78,0,0,0-4.8-4.7h-7v9.6Z"
        class="deb-green" />
    <path
        d="M325.5,44.8a14.36,14.36,0,0,1,9.6,3.7.71.71,0,0,1,0,1.1l-1.8,1.8c-.3.4-.6.3-1,0a10.72,10.72,0,0,0-6.7-2.7,10.2,10.2,0,0,0,0,20.4,15,15,0,0,0,5.9-1.3V63.4h-3.9a.68.68,0,0,1-.7-.7V60.4a.68.68,0,0,1,.7-.7h7.2a.75.75,0,0,1,.7.7v9.5a1.14,1.14,0,0,1-.3.6,19.93,19.93,0,0,1-9.8,2.6A14.17,14.17,0,0,1,311.2,59a14.41,14.41,0,0,1,14.3-14.2"
        class="deb-green" />
    <path d="M344.1,46a.75.75,0,0,1,.7-.7h2.6a.75.75,0,0,1,.7.7V72a.75.75,0,0,1-.7.7h-2.6a.75.75,0,0,1-.7-.7V46"
        class="deb-green" />
    <path
        d="M358.2,46a.68.68,0,0,1,.7-.7h15.8a.75.75,0,0,1,.7.7v2.2a.68.68,0,0,1-.7.7H362.3v8h10.5a.75.75,0,0,1,.7.7v2.2a.86.86,0,0,1-.7.8H362.3v8.5h12.4a.75.75,0,0,1,.7.7V72a.68.68,0,0,1-.7.7H358.9a.75.75,0,0,1-.7-.7V46"
        class="deb-green" />
    <path
        d="M383.7,46a.68.68,0,0,1,.7-.7h8.8c4.8,0,8.2,3.1,8.2,7.3,0,3-2.2,5.2-4.1,6.3,2.1.9,4.9,2.8,4.9,6.4,0,4.4-3.6,7.6-8.6,7.6h-9.3a.75.75,0,0,1-.7-.7V46m10.1,23.2a4.27,4.27,0,0,0,4.3-4.3c0-2.4-2.3-4.1-4.8-4.1h-5.4v8.4Zm-.6-12a4,4,0,0,0,4.1-4.2,3.83,3.83,0,0,0-4.1-4.1h-5.3v8.3Z" />
    <path
        d="M410.6,46a.68.68,0,0,1,.7-.7h15.8a.75.75,0,0,1,.7.7v2.2a.68.68,0,0,1-.7.7H414.7v8h10.5a.75.75,0,0,1,.7.7v2.2a.86.86,0,0,1-.7.8H414.7v8.5h12.4a.75.75,0,0,1,.7.7V72a.68.68,0,0,1-.7.7H411.3a.75.75,0,0,1-.7-.7V46" />
    <path
        d="M434.3,68.8a14,14,0,0,0,1-1.6c.4-.5.9-.7,1.3-.3.2.2,3.3,2.7,6.3,2.7,2.7,0,4.4-1.7,4.4-3.7,0-2.4-2-3.9-5.9-5.5s-7.2-3.8-7.2-8.3c0-3.1,2.4-7.3,8.6-7.3a13.42,13.42,0,0,1,7.3,2.3.89.89,0,0,1,.2,1.3c-.3.5-.7,1-1,1.5a1,1,0,0,1-1.4.4c-.3-.2-3-2-5.3-2-3.3,0-4.4,2.1-4.4,3.5,0,2.2,1.7,3.6,5,5,4.6,1.8,8.5,4,8.5,8.8,0,4.1-3.7,7.4-8.8,7.4a13,13,0,0,1-8.5-3.1c-.2-.2-.5-.4-.1-1.1" />
    <path
        d="M459.6,46a.68.68,0,0,1,.7-.7h9a8.79,8.79,0,0,1,8.8,8.7,8.9,8.9,0,0,1-8.8,8.9h-5.7v9.3a.77.77,0,0,1-.8.7h-2.6a.75.75,0,0,1-.7-.7V46m9.6,12.9a5,5,0,0,0,5-5,4.83,4.83,0,0,0-5-4.7h-5.4V59h5.4Z" />
    <path
        d="M480.3,71.8l12.1-26.5a1,1,0,0,1,.7-.4h.4a1.27,1.27,0,0,1,.7.4l12,26.5a.7.7,0,0,1-.7,1H503a.87.87,0,0,1-.9-.6l-2.4-5.4H486.8l-2.4,5.4a.91.91,0,0,1-.9.6H481a.7.7,0,0,1-.7-1m17.8-8.4-4.8-10.8h-.2l-4.8,10.8Z" />
    <path
        d="M508.7,71.8l12.1-26.5a1,1,0,0,1,.7-.4h.4a1,1,0,0,1,.7.4l12,26.5a.7.7,0,0,1-.7,1h-2.5a.87.87,0,0,1-.9-.6l-2.4-5.4H515.2l-2.4,5.4a.91.91,0,0,1-.9.6h-2.5a.7.7,0,0,1-.7-1m17.9-8.4-4.8-10.8h-.2l-4.8,10.8Z" />
    <path
        d="M540.8,46a.68.68,0,0,1,.7-.7h10.7a8.49,8.49,0,0,1,8.6,8.4,8.8,8.8,0,0,1-5.8,8l5.4,10a.72.72,0,0,1-.7,1.1h-3.1a.68.68,0,0,1-.6-.4L550.8,62h-5.9V72a.75.75,0,0,1-.7.7h-2.6a.75.75,0,0,1-.7-.7V46M552,58.6a4.89,4.89,0,0,0,4.8-4.9A4.78,4.78,0,0,0,552,49h-7v9.6Z" />
    <path
        d="M569.4,46a.68.68,0,0,1,.7-.7h9.1a13.75,13.75,0,1,1,0,27.5h-9.1a.75.75,0,0,1-.7-.7V46m9.2,23a9.75,9.75,0,0,0,10-10.1,9.67,9.67,0,0,0-10-10h-5.2V69Z" />
    <path
        d="M601,46a.68.68,0,0,1,.7-.7h15.8a.75.75,0,0,1,.7.7v2.2a.68.68,0,0,1-.7.7H605v8h10.5a.86.86,0,0,1,.8.7v2.2a.86.86,0,0,1-.8.8H605v8.5h12.4a.75.75,0,0,1,.7.7V72a.68.68,0,0,1-.7.7H601.6a.75.75,0,0,1-.7-.7V46" />
    <path
        d="M626.5,46a.68.68,0,0,1,.7-.7H638a8.49,8.49,0,0,1,8.6,8.4,8.8,8.8,0,0,1-5.8,8l5.4,10a.72.72,0,0,1-.7,1.1h-3.1a.68.68,0,0,1-.6-.4L636.6,62h-5.9V72a.75.75,0,0,1-.7.7h-2.6a.75.75,0,0,1-.7-.7V46m11,12.6a4.89,4.89,0,0,0,4.8-4.9,4.78,4.78,0,0,0-4.8-4.7h-7v9.6Z" />
    <path
        d="M653.3,68.8a14,14,0,0,0,1-1.6c.4-.5.9-.7,1.3-.3.2.2,3.3,2.7,6.3,2.7,2.7,0,4.4-1.7,4.4-3.7,0-2.4-2-3.9-5.9-5.5s-7.2-3.8-7.2-8.3c0-3.1,2.4-7.3,8.6-7.3a13.42,13.42,0,0,1,7.3,2.3.89.89,0,0,1,.2,1.3c-.3.5-.7,1-1,1.5a1,1,0,0,1-1.4.4c-.3-.2-3-2-5.3-2-3.3,0-4.4,2.1-4.4,3.5,0,2.2,1.7,3.6,5,5,4.6,1.8,8.5,4,8.5,8.8,0,4.1-3.7,7.4-8.8,7.4a13,13,0,0,1-8.5-3.1c-.2-.2-.5-.4-.1-1.1" />
    <path d="M23,36a5,5,0,1,0,5,5A5,5,0,0,0,23,36Z" class="deb-green" />
    <path d="M41,36a5,5,0,1,0,5,5A5,5,0,0,0,41,36Z" class="deb-green" />
    <path d="M59,36a5,5,0,1,0,5,5A5,5,0,0,0,59,36Z" class="deb-green" />
    <path d="M5,36A5,5,0,0,0,5,46,5,5,0,0,0,5,36Z" class="deb-green" />
    <path d="M77,36a5,5,0,1,0,5,5A5,5,0,0,0,77,36Z" class="deb-green" />
    <path d="M41,0a5,5,0,0,0-5,5A5,5,0,0,0,46,5,5,5,0,0,0,41,0Z" class="deb-green" />
    <path d="M23,18a5,5,0,1,0,5,5A5,5,0,0,0,23,18Z" class="deb-green" />
    <path d="M41,18a5,5,0,1,0,5,5A5,5,0,0,0,41,18Z" class="deb-green" />
    <path d="M59,18a5,5,0,1,0,5,5A5,5,0,0,0,59,18Z" class="deb-green" />
    <path d="M23,72a5,5,0,1,0,5,5A5,5,0,0,0,23,72Z" class="deb-green" />
    <path d="M41,72a5,5,0,1,0,5,5A5,5,0,0,0,41,72Z" class="deb-green" />
    <path d="M59,72a5,5,0,1,0,5,5A5,5,0,0,0,59,72Z" class="deb-green" />
    <path d="M5,72A5,5,0,0,0,5,82,5,5,0,0,0,5,72Z" class="deb-green" />
    <path d="M77,72a5,5,0,1,0,5,5A5,5,0,0,0,77,72Z" class="deb-green" />
    <path d="M23,90a5,5,0,1,0,5,5A5,5,0,0,0,23,90Z" class="deb-green" />
    <path d="M41,90a5,5,0,1,0,5,5A5,5,0,0,0,41,90Z" class="deb-green" />
    <path d="M59,90a5,5,0,1,0,5,5A5,5,0,0,0,59,90Z" class="deb-green" />
    <path d="M5,90a5,5,0,0,0,0,10A5,5,0,0,0,5,90Z" class="deb-green" />
    <path d="M77,90a5,5,0,1,0,5,5A5,5,0,0,0,77,90Z" class="deb-green" />
    <path d="M23,54a5,5,0,1,0,5,5A5,5,0,0,0,23,54Z" class="deb-green" />
    <path d="M41,54a5,5,0,1,0,5,5A5,5,0,0,0,41,54Z" class="deb-green" />
    <path d="M59,54a5,5,0,1,0,5,5A5,5,0,0,0,59,54Z" class="deb-green" />
    <path d="M5,54A5,5,0,0,0,5,64,5,5,0,0,0,5,54Z" class="deb-green" />
    <path d="M77,54a5,5,0,1,0,5,5A5,5,0,0,0,77,54Z" class="deb-green" />
</svg>